<?xml version="1.0" standalone="no"?>
<!DOCTYPE svg PUBLIC "-//W3C//DTD SVG 20010904//EN"
 "http://www.w3.org/TR/2001/REC-SVG-20010904/DTD/svg10.dtd">
<svg version="1.0" xmlns="http://www.w3.org/2000/svg"
 width="1568.000000pt" height="1568.000000pt" viewBox="0 0 1568.000000 1568.000000"
 preserveAspectRatio="xMidYMid meet">
<metadata>
Created by potrace 1.14, written by Peter Selinger 2001-2017
</metadata>
<g transform="translate(0.000000,1568.000000) scale(0.100000,-0.100000)"
fill="#000000" stroke="none">
<path d="M9561 10577 c-7 -9 -12 -120 -13 -343 l-3 -329 -1955 -5 -1955 -5 -5
-235 -5 -235 -33 -3 c-32 -3 -33 -5 -30 -40 3 -34 6 -37 36 -40 l32 -3 0 -235
0 -234 585 0 585 0 0 -1475 0 -1475 665 0 665 0 2 1473 3 1472 705 0 705 0 2
-330 c3 -322 3 -330 24 -347 12 -10 26 -18 32 -18 7 0 275 263 597 584 322
321 593 586 603 589 20 7 25 77 5 77 -7 0 -276 263 -598 585 -606 606 -614
613 -649 572z"/>
<path d="M330 7910 l0 -1990 605 0 605 0 0 876 c0 580 3 875 10 872 6 -2 203
-314 438 -693 l428 -690 294 -2 295 -2 101 172 c56 95 231 390 389 657 159
267 306 515 328 553 21 37 43 67 48 67 5 0 9 -101 9 -237 0 -131 3 -538 7
-905 l6 -668 604 0 603 0 0 968 c0 533 -3 1428 -7 1990 l-6 1022 -546 -2 -545
-3 -239 -400 c-131 -220 -414 -696 -629 -1058 -215 -362 -396 -656 -402 -654
-6 2 -288 456 -626 1009 -338 553 -629 1029 -647 1057 l-32 51 -546 0 -545 0
0 -1990z"/>
<path d="M11370 7910 l0 -1990 650 0 650 0 0 490 0 490 150 167 c83 93 155
169 160 171 5 2 111 -133 237 -300 125 -167 349 -464 497 -661 l269 -357 770
0 c614 0 767 3 760 13 -6 6 -382 508 -836 1114 l-826 1102 766 843 c421 464
779 858 796 876 l31 32 -725 0 -724 -1 -255 -282 c-813 -901 -1055 -1165
-1062 -1161 -4 3 -8 329 -8 725 l0 719 -650 0 -650 0 0 -1990z"/>
</g>
</svg>
