<svg width="110" height="137" viewBox="0 0 110 137" fill="none" xmlns="http://www.w3.org/2000/svg">
<path opacity="0.1" d="M63.9171 51.5961C50.2053 51.5961 39.1232 55.5406 31.422 63.2418C32.3612 38.0722 46.4486 25.1117 68.4251 25.1117C77.2532 25.1117 85.7057 26.8022 93.0312 31.6859L104.301 9.33378C95.0973 3.51096 81.5734 0.317812 67.6737 0.317812C28.041 0.317812 0.617467 25.6752 0.617467 71.1307C0.617467 113.581 23.1574 136.309 59.4091 136.309C87.2083 136.309 109.185 119.404 109.185 92.5437C109.185 67.7497 89.2745 51.5961 63.9171 51.5961ZM57.7186 113.581C43.0677 113.581 34.6152 105.316 34.6152 94.0463C34.6152 82.5885 44.0068 74.3239 57.3429 74.3239C70.8669 74.3239 79.695 82.025 79.695 94.0463C79.695 106.068 70.6791 113.581 57.7186 113.581Z" fill="#3284FF"/>
</svg>
