<svg width="23" height="17" viewBox="0 0 23 17" fill="none" xmlns="http://www.w3.org/2000/svg">
<path opacity="0.5" d="M8.49828 7.1591L10.4983 0.3991H4.89828L2.09828 6.3591C0.698281 9.3591 0.538281 10.3191 0.538281 11.5991C0.538281 14.7191 2.77828 16.7191 5.81828 16.7191C8.85828 16.7191 11.0983 14.7191 11.0983 11.5991C11.0983 9.4791 10.0983 7.9191 8.49828 7.1591ZM20.0983 7.1591L22.0983 0.3991H16.4983L13.6983 6.3591C12.2983 9.3591 12.1383 10.3191 12.1383 11.5991C12.1383 14.7191 14.3783 16.7191 17.4183 16.7191C20.4583 16.7191 22.6983 14.7191 22.6983 11.5991C22.6983 9.4791 21.6983 7.9191 20.0983 7.1591Z" fill="#3284FF"/>
</svg>
