<svg width="23" height="17" viewBox="0 0 23 17" fill="none" xmlns="http://www.w3.org/2000/svg">
<path opacity="0.5" d="M0.766699 16.6961L4.1267 5.45605L5.4467 10.4961C3.90003 10.4961 2.63337 10.0561 1.6467 9.17605C0.660033 8.26939 0.166699 7.04272 0.166699 5.49605C0.166699 3.92272 0.660033 2.68272 1.6467 1.77605C2.66003 0.84272 3.9267 0.376053 5.4467 0.376053C6.9667 0.376053 8.22003 0.84272 9.2067 1.77605C10.22 2.68272 10.7267 3.92272 10.7267 5.49605C10.7267 5.92272 10.6867 6.34939 10.6067 6.77605C10.5534 7.20272 10.42 7.72272 10.2067 8.33605C9.99337 8.92272 9.6467 9.72272 9.1667 10.7361L6.3667 16.6961H0.766699ZM12.3667 16.6961L15.7267 5.45605L17.0467 10.4961C15.5 10.4961 14.2334 10.0561 13.2467 9.17605C12.26 8.26939 11.7667 7.04272 11.7667 5.49605C11.7667 3.92272 12.26 2.68272 13.2467 1.77605C14.26 0.84272 15.5267 0.376053 17.0467 0.376053C18.5667 0.376053 19.82 0.84272 20.8067 1.77605C21.82 2.68272 22.3267 3.92272 22.3267 5.49605C22.3267 5.92272 22.2867 6.34939 22.2067 6.77605C22.1534 7.20272 22.02 7.72272 21.8067 8.33605C21.5934 8.92272 21.2467 9.72272 20.7667 10.7361L17.9667 16.6961H12.3667Z" fill="#3284FF"/>
</svg>
