<svg width="45" height="49" viewBox="0 0 45 49" fill="none" xmlns="http://www.w3.org/2000/svg">
<g opacity="0.9">
<path d="M41.3865 7.27925H36.1315V1.36405C36.1315 0.848097 35.7131 0.429688 35.1971 0.429688H9.50156C8.9856 0.429688 8.56719 0.848097 8.56719 1.36405V7.27925H3.31194C1.755 7.27925 0.488281 8.5455 0.488281 10.102V25.1535C0.488281 25.6695 0.906691 26.0879 1.42265 26.0879C1.93861 26.0879 2.35702 25.6695 2.35702 25.1535V10.102C2.35702 9.57592 2.78542 9.14798 3.31194 9.14798H8.56701V32.5642H2.35702V25.8986C2.35702 25.3826 1.93861 24.9642 1.42265 24.9642C0.906691 24.9642 0.488281 25.3826 0.488281 25.8986V37.3702V37.3705C0.488281 38.9276 1.755 40.1943 3.31194 40.1943H16.7415L16.2279 44.6023C16.1112 45.6261 15.2467 46.3975 14.2165 46.3975C14.2156 46.3975 14.2148 46.3975 14.2141 46.3975C14.2003 46.397 14.1886 46.3978 14.1757 46.3983C14.1669 46.3987 12.9958 46.4005 12.9958 46.4005C12.4799 46.4005 12.0614 46.8189 12.0614 47.3349C12.0614 47.8509 12.4799 48.2693 12.9958 48.2693H31.7643C32.2802 48.2693 32.6986 47.8509 32.6986 47.3349C32.6986 46.8189 32.2802 46.4005 31.7643 46.4005C31.7643 46.4005 30.5932 46.3986 30.5844 46.3983C30.572 46.3978 30.5597 46.3975 30.5473 46.3975C30.5461 46.3976 30.545 46.3976 30.5437 46.3975C29.5135 46.3975 28.649 45.6261 28.5322 44.6023C28.5321 44.6014 28.532 44.6007 28.5319 44.6L28.0186 40.1944H41.3865C42.9435 40.1944 44.2102 38.9277 44.2102 37.3706V37.3703V10.102C44.2101 8.54541 42.9434 7.27925 41.3865 7.27925ZM41.3865 9.14798C41.913 9.14798 42.3414 9.57592 42.3414 10.102V32.5642H36.1315V9.14798H41.3865ZM34.2627 2.29842L34.2627 32.5638H10.4359V2.29842H34.2627ZM42.3414 34.4329V37.3703C42.3414 37.8969 41.913 38.3253 41.3865 38.3253H3.31194C2.78542 38.3253 2.35702 37.8969 2.35702 37.3703V34.4329H42.3414ZM26.6756 44.8159C26.7419 45.3945 26.9324 45.9313 27.2186 46.4005H17.5418C17.8281 45.9312 18.0185 45.3946 18.0844 44.8162L18.6229 40.1943H26.1372L26.6756 44.8159Z" fill="#3284FF"/>
<path d="M17.2105 9.27249C17.6321 9.56999 18.2152 9.46917 18.5125 9.0474C19.4212 7.759 20.9034 6.98983 22.4775 6.98983C24.5275 6.98983 26.2831 8.26954 26.9908 10.0716L26.8554 9.99699C26.4033 9.7478 25.8352 9.91243 25.5861 10.3644C25.337 10.8163 25.5016 11.3846 25.9535 11.6336L27.8087 12.656C28.1876 12.8627 28.6726 12.7811 28.9595 12.4567L30.4107 10.816C30.7526 10.4294 30.7164 9.83899 30.3299 9.49711C29.9434 9.15522 29.3528 9.19148 29.011 9.57793L28.8598 9.74892C27.9792 7.06523 25.4518 5.12109 22.4774 5.12109C20.2966 5.12109 18.2436 6.18627 16.9854 7.97054C16.6879 8.39212 16.7887 8.97508 17.2105 9.27249Z" fill="#3284FF"/>
<path d="M14.6097 14.1782C14.9913 14.5155 15.5914 14.4786 15.9287 14.0975L16.0908 13.9142C16.9676 16.6043 19.4984 18.5543 22.4773 18.5543C24.7275 18.5543 26.8174 17.4355 28.0678 15.5615C28.3542 15.1323 28.2384 14.5521 27.8091 14.2657C27.3801 13.9795 26.7998 14.095 26.5133 14.5245C25.6103 15.8777 24.1015 16.6857 22.4773 16.6857C20.4313 16.6857 18.6785 15.4109 17.9681 13.6144L18.0845 13.6785C18.5364 13.9276 19.1047 13.7631 19.3537 13.3111C19.6028 12.8591 19.4383 12.2909 18.9863 12.0419L17.2383 11.0785C16.8522 10.8017 16.2951 10.8626 15.9802 11.2186L14.5289 12.8592C14.1871 13.2457 14.2232 13.8363 14.6097 14.1782Z" fill="#3284FF"/>
<path d="M15.3772 23.6012H29.383C29.899 23.6012 30.3174 23.1827 30.3174 22.6668C30.3174 22.1508 29.899 21.7324 29.383 21.7324H15.3772C14.8613 21.7324 14.4429 22.1508 14.4429 22.6668C14.4429 23.1827 14.8612 23.6012 15.3772 23.6012Z" fill="#3284FF"/>
<path d="M25.2378 26.8682H15.3772C14.8613 26.8682 14.4429 27.2866 14.4429 27.8025C14.4429 28.3185 14.8613 28.7369 15.3772 28.7369H25.2378C25.7538 28.7369 26.1722 28.3185 26.1722 27.8025C26.1722 27.2866 25.7538 26.8682 25.2378 26.8682Z" fill="#3284FF"/>
</g>
</svg>
