<svg width="35" height="49" viewBox="0 0 35 49" fill="none" xmlns="http://www.w3.org/2000/svg">
<g opacity="0.9">
<path d="M10.8389 19.8076H17.0325V21.356H10.8389V19.8076Z" fill="#3284FF"/>
<path d="M10.8389 22.9053H17.0325V24.4537H10.8389V22.9053Z" fill="#3284FF"/>
<path d="M10.8389 26.002H17.0325V27.5503H10.8389V26.002Z" fill="#3284FF"/>
<path d="M21.6777 19.8076H27.8713V21.356H21.6777V19.8076Z" fill="#3284FF"/>
<path d="M21.6777 22.9053H27.8713V24.4537H21.6777V22.9053Z" fill="#3284FF"/>
<path d="M21.6777 26.002H27.8713V27.5503H21.6777V26.002Z" fill="#3284FF"/>
<path d="M33.2905 17.4855H30.9679V15.1629C30.9679 14.9383 30.8704 14.7255 30.7007 14.5777C30.5313 14.4314 30.3053 14.3637 30.0837 14.3963L19.355 15.9295L8.62619 14.3963C8.40542 14.3637 8.1786 14.4314 8.00925 14.5777C7.83951 14.7255 7.74198 14.9383 7.74198 15.1629V17.4855H5.41939C4.99108 17.4855 4.64519 17.8314 4.64519 18.2597V35.2921C4.64519 35.7204 4.99108 36.0663 5.41939 36.0663H24.7743V44.5824C24.7743 45.8628 23.7321 46.905 22.4518 46.905H21.6776V46.1308C21.6776 44.8505 20.6353 43.8082 19.355 43.8082H6.96779C5.68741 43.8082 4.64519 44.8505 4.64519 46.1308V46.905H3.87099C2.59062 46.905 1.5484 45.8628 1.5484 44.5824V4.32412C1.5484 3.36582 2.13207 2.5421 2.96222 2.18751L7.1946 6.4199C7.33939 6.56544 7.53596 6.64671 7.74198 6.64671H18.5808C18.7868 6.64671 18.9834 6.56544 19.1281 6.4199L23.3605 2.18751C24.1907 2.5421 24.7743 3.36582 24.7743 4.32412V13.6145H26.3227V4.32412C26.3227 2.18978 24.5861 0.453125 22.4518 0.453125H3.87099C1.73665 0.453125 0 2.18978 0 4.32412V44.5824C0 46.7168 1.73665 48.4534 3.87099 48.4534H22.4518C24.5861 48.4534 26.3227 46.7168 26.3227 44.5824V36.0663H33.2905C33.7188 36.0663 34.0647 35.7204 34.0647 35.2921V18.2597C34.0647 17.8314 33.7188 17.4855 33.2905 17.4855ZM18.2602 5.09832H8.06255L4.96576 2.00152H21.357L18.2602 5.09832ZM6.19359 46.1308C6.19359 45.7037 6.54062 45.3566 6.96779 45.3566H19.355C19.7821 45.3566 20.1292 45.7037 20.1292 46.1308V46.905H6.19359V46.1308ZM20.1292 17.3827L29.4195 16.0554V29.9747L20.1292 31.302V17.3827ZM9.29038 16.0554L18.5808 17.3827V31.302L9.29038 29.9747V16.0554ZM32.5163 34.5179H6.19359V19.0339H7.74198V30.6469C7.74198 31.0324 8.0255 31.3591 8.40618 31.4135L19.245 32.9619C19.2812 32.9672 19.3187 32.9695 19.355 32.9695C19.3912 32.9695 19.4287 32.9672 19.465 32.9619L30.3037 31.4135C30.6844 31.3591 30.9679 31.0324 30.9679 30.6469V19.0339H32.5163V34.5179Z" fill="#3284FF"/>
</g>
</svg>
