<svg width="59" height="42" viewBox="0 0 59 42" fill="none" xmlns="http://www.w3.org/2000/svg">
<path d="M3.69502 0.0537109H37.2535C38.1185 0.054667 38.9478 0.398715 39.5595 1.01037C40.1711 1.62202 40.5152 2.45133 40.5161 3.31634V8.44333H49.8379C50.0023 8.44346 50.1637 8.48695 50.3059 8.56939C50.4481 8.65184 50.566 8.77033 50.6478 8.91292L58.1052 21.9634C58.1854 22.1044 58.2276 22.2638 58.2275 22.426V33.1461C58.2266 34.0111 57.8825 34.8404 57.2709 35.4521C56.6592 36.0637 55.8299 36.4078 54.9649 36.4087H52.5552C52.3352 37.7119 51.6606 38.895 50.6513 39.7482C49.6419 40.6014 48.363 41.0695 47.0414 41.0695C45.7198 41.0695 44.4408 40.6014 43.4315 39.7482C42.4221 38.895 41.7476 37.7119 41.5275 36.4087H16.2002C15.9801 37.7119 15.3056 38.895 14.2963 39.7482C13.2869 40.6014 12.008 41.0695 10.6864 41.0695C9.36474 41.0695 8.08582 40.6014 7.07648 39.7482C6.06713 38.895 5.3926 37.7119 5.17252 36.4087H3.69502C2.83001 36.4078 2.00071 36.0637 1.38905 35.4521C0.777397 34.8404 0.433346 34.0111 0.432392 33.1461V3.31634C0.433346 2.45133 0.777397 1.62202 1.38905 1.01037C2.00071 0.398715 2.83001 0.054667 3.69502 0.0537109ZM50.8948 13.1042H44.2448V21.4938H55.6885L50.8948 13.1042ZM56.3632 26.1547H54.4988C54.2516 26.1547 54.0145 26.253 53.8397 26.4278C53.6649 26.6026 53.5666 26.8397 53.5666 27.0869C53.5666 27.3342 53.6649 27.5713 53.8397 27.7461C54.0145 27.9209 54.2516 28.0191 54.4988 28.0191H56.3632V26.1547ZM47.0414 39.2053C47.7789 39.2053 48.4998 38.9866 49.1129 38.5769C49.7261 38.1671 50.2041 37.5848 50.4863 36.9035C50.7685 36.2221 50.8423 35.4724 50.6985 34.7491C50.5546 34.0258 50.1995 33.3614 49.678 32.8399C49.1565 32.3185 48.4921 31.9633 47.7688 31.8195C47.0455 31.6756 46.2958 31.7494 45.6145 32.0317C44.9331 32.3139 44.3508 32.7918 43.9411 33.405C43.5313 34.0182 43.3127 34.7391 43.3127 35.4765C43.314 36.4651 43.7072 37.4127 44.4062 38.1117C45.1052 38.8107 46.0529 39.204 47.0414 39.2053ZM40.5161 34.5444H41.5275C41.7476 33.2412 42.4221 32.0581 43.4315 31.2049C44.4408 30.3517 45.7198 29.8836 47.0414 29.8836C48.363 29.8836 49.6419 30.3517 50.6513 31.2049C51.6606 32.0581 52.3352 33.2412 52.5552 34.5444H54.9649C55.3357 34.5441 55.6911 34.3966 55.9533 34.1345C56.2155 33.8723 56.3629 33.5168 56.3632 33.1461V29.8835H54.4988C53.7571 29.8835 53.0458 29.5888 52.5214 29.0644C51.9969 28.5399 51.7023 27.8286 51.7023 27.0869C51.7023 26.3452 51.9969 25.6339 52.5214 25.1095C53.0458 24.585 53.7571 24.2904 54.4988 24.2904H56.3632V23.3582H43.3127C43.0654 23.3582 42.8283 23.26 42.6535 23.0852C42.4787 22.9104 42.3805 22.6733 42.3805 22.426V12.172C42.3805 11.9248 42.4787 11.6877 42.6535 11.5129C42.8283 11.3381 43.0654 11.2399 43.3127 11.2399H49.8298L49.2973 10.3077H40.5161V34.5444ZM10.6864 39.2053C11.4238 39.2053 12.1448 38.9866 12.7579 38.5769C13.3711 38.1671 13.849 37.5848 14.1313 36.9035C14.4135 36.2221 14.4873 35.4724 14.3434 34.7491C14.1996 34.0258 13.8444 33.3614 13.323 32.8399C12.8015 32.3185 12.1371 31.9633 11.4138 31.8195C10.6905 31.6756 9.94078 31.7494 9.25945 32.0317C8.57811 32.3139 7.99577 32.7918 7.58605 33.405C7.17633 34.0182 6.95765 34.7391 6.95765 35.4765C6.95895 36.4651 7.35221 37.4127 8.0512 38.1117C8.75019 38.8107 9.69785 39.204 10.6864 39.2053ZM2.29675 33.1461C2.29706 33.5168 2.44447 33.8723 2.70663 34.1345C2.9688 34.3966 3.32427 34.5441 3.69502 34.5444H5.17252C5.3926 33.2412 6.06713 32.0581 7.07648 31.2049C8.08582 30.3517 9.36474 29.8836 10.6864 29.8836C12.008 29.8836 13.2869 30.3517 14.2963 31.2049C15.3056 32.0581 15.9801 33.2412 16.2002 34.5444H38.6518V28.0191H2.29675V33.1461ZM2.29675 26.1547H38.6518V3.31634C38.6515 2.94559 38.504 2.59012 38.2419 2.32796C37.9797 2.0658 37.6242 1.91838 37.2535 1.91807H3.69502C3.32427 1.91838 2.9688 2.0658 2.70663 2.32796C2.44447 2.59012 2.29706 2.94559 2.29675 3.31634V26.1547Z" fill="#3284FF"/>
</svg>
