<svg width="65" height="57" viewBox="0 0 65 57" fill="none" xmlns="http://www.w3.org/2000/svg">
<g opacity="0.9">
<path d="M34.8028 47.441C34.3999 46.3337 33.3375 45.5898 32.1597 45.5898C31.8317 45.5898 31.5081 45.6471 31.1979 45.7599C29.7406 46.2904 28.9867 47.9077 29.5168 49.365C29.9199 50.4723 30.9822 51.2161 32.1601 51.2161C32.4881 51.2161 32.8116 51.1588 33.1218 51.0461C34.5791 50.5156 35.3332 48.8984 34.8028 47.441ZM32.4806 49.284C32.3767 49.3219 32.2688 49.341 32.1602 49.341C31.7674 49.341 31.4133 49.093 31.2789 48.7237C31.1021 48.2379 31.3535 47.6988 31.8392 47.522C31.943 47.4841 32.0509 47.465 32.1596 47.465C32.5522 47.465 32.9064 47.713 33.0408 48.0824C33.2177 48.5681 32.9664 49.1071 32.4806 49.284Z" fill="#3284FF"/>
<path d="M64.0612 38.7954L62.7784 35.2714C62.6906 35.0302 62.5141 34.8473 62.2993 34.7453C62.2975 34.7444 62.2956 34.7433 62.2937 34.7424C62.2797 34.7358 62.2651 34.7307 62.2507 34.7248C62.2372 34.7193 62.224 34.7131 62.2102 34.7082C62.207 34.7069 62.2035 34.7062 62.2001 34.7052C62.0047 34.6383 61.7861 34.6347 61.5769 34.7109L58.511 35.8259L51.9891 17.9059C51.989 17.9054 51.9886 17.905 51.9885 17.9046L49.424 10.858C49.289 10.4893 48.9352 10.2416 48.5427 10.2416C48.4339 10.2416 48.3252 10.2604 48.2226 10.2979C47.7364 10.4741 47.4851 11.0142 47.6614 11.4992L49.9067 17.6662L37.8663 22.0484C37.8663 22.0484 37.8659 22.0484 37.8656 22.0485C37.8653 22.0486 37.865 22.0489 37.8646 22.0489L30.5243 24.7203L25.6068 11.2123L32.0683 8.86087L33.4579 12.6779C33.5917 13.0467 33.9454 13.2956 34.338 13.2956C34.448 13.2956 34.5555 13.2769 34.6592 13.238L39.3583 11.5278C39.5933 11.4428 39.7808 11.2703 39.8871 11.0441C39.9656 10.8758 39.9912 10.6924 39.9651 10.5133C39.9649 10.5123 39.9649 10.5113 39.9648 10.5104C39.9612 10.486 39.9559 10.4615 39.9503 10.4374C39.9487 10.4305 39.9478 10.424 39.9462 10.4171C39.9386 10.3867 39.9293 10.3566 39.9184 10.3266L38.5293 6.50942L44.9894 4.15834L47.7539 11.7254C47.8889 12.0941 48.3677 12.3429 48.7602 12.3429C48.869 12.3429 48.8527 12.3242 48.9565 12.2854C49.4415 12.1091 49.6928 11.5702 49.5165 11.0841L46.4312 2.63471C46.3131 2.31206 46.0276 2.08217 45.6949 2.02966C45.6474 2.02216 45.5989 2.01829 45.5499 2.01829C45.4412 2.01829 45.3324 2.03704 45.2299 2.07454L37.0112 5.06617C37.0098 5.06667 37.0083 5.0668 37.0069 5.0673C37.0044 5.06817 37.0022 5.06942 36.9997 5.0703L32.3162 6.77519C32.3134 6.77619 32.3107 6.77644 32.3079 6.77744C32.3033 6.77919 32.2989 6.78144 32.2943 6.78319L24.085 9.77132C23.8499 9.85633 23.6624 10.0288 23.5562 10.2551C23.4499 10.4826 23.4387 10.7375 23.5249 10.9727L29.0826 26.2433L34.4272 40.9286C33.7497 40.7216 33.0382 40.6053 32.3097 40.5912L18.7699 3.39028C17.8858 0.961447 15.1906 -0.295285 12.7615 0.58854C12.7611 0.588665 12.7608 0.588915 12.7604 0.58904L0.731481 4.92741C0.731481 4.92741 0.731106 4.92754 0.730856 4.92766C0.730231 4.92791 0.729606 4.92803 0.728856 4.92828C0.707229 4.93616 0.686727 4.94554 0.666101 4.95479C0.658225 4.95829 0.649974 4.96116 0.642223 4.96491C0.621972 4.97454 0.60272 4.98579 0.583468 4.99679C0.575593 5.00129 0.567217 5.00517 0.559466 5.01004C0.540965 5.02129 0.523713 5.03379 0.506212 5.04617C0.498461 5.05167 0.490211 5.05667 0.48271 5.0623C0.466459 5.07467 0.451332 5.08805 0.435956 5.10142C0.428205 5.1083 0.41983 5.11443 0.412329 5.12143C0.397828 5.13468 0.384577 5.1493 0.371075 5.16343C0.3637 5.17131 0.355824 5.17843 0.348699 5.18643C0.335947 5.20081 0.324321 5.21618 0.312445 5.23131C0.305695 5.23981 0.298319 5.24806 0.291944 5.25694C0.281193 5.27169 0.271692 5.28719 0.261816 5.30257C0.255441 5.31257 0.24844 5.32207 0.242439 5.33219C0.233439 5.34745 0.225688 5.36345 0.217562 5.3792C0.211937 5.39007 0.205686 5.4007 0.200436 5.41183C0.193185 5.42733 0.18731 5.44333 0.180809 5.45921C0.175934 5.47133 0.170433 5.48283 0.166183 5.49508C0.160683 5.51058 0.156432 5.52659 0.151807 5.54234C0.147931 5.55534 0.143431 5.56821 0.140056 5.58147C0.13618 5.59697 0.133555 5.61297 0.13043 5.62872C0.12768 5.64247 0.124304 5.65622 0.122179 5.6701C0.119679 5.6861 0.118804 5.70235 0.117179 5.71848C0.115804 5.73248 0.113679 5.74648 0.112928 5.76061C0.112053 5.77711 0.112678 5.79361 0.112678 5.81011C0.112678 5.82424 0.111928 5.83836 0.112553 5.85249C0.113303 5.86924 0.115679 5.88612 0.117304 5.90287C0.118679 5.91674 0.119429 5.93075 0.121429 5.94475C0.123929 5.96137 0.12793 5.978 0.131305 5.99463C0.13418 6.00875 0.136305 6.023 0.139806 6.03713C0.143931 6.05376 0.149807 6.07013 0.154932 6.08663C0.159182 6.10026 0.162558 6.11414 0.167433 6.12776C0.167558 6.12801 0.167683 6.12839 0.167808 6.12864C0.167933 6.12926 0.168058 6.12976 0.168308 6.13039L1.45104 9.65444C1.46067 9.68094 1.47392 9.70507 1.48555 9.73019C1.49467 9.74969 1.50205 9.77045 1.51242 9.78907C1.52705 9.81545 1.54468 9.83895 1.56155 9.86358C1.57218 9.87896 1.58118 9.89583 1.59268 9.91046C1.61281 9.93634 1.63581 9.95934 1.65831 9.98259C1.66881 9.99347 1.67806 10.0058 1.68906 10.0162C1.71444 10.0401 1.74232 10.0608 1.76994 10.0816C1.77995 10.0892 1.78895 10.0981 1.7992 10.1051C1.82907 10.1257 1.86108 10.1431 1.89308 10.16C1.90258 10.165 1.91133 10.1715 1.92096 10.1762C1.95371 10.1922 1.98809 10.2046 2.02247 10.2166C2.03247 10.2201 2.04184 10.2251 2.05197 10.2284C2.08722 10.2395 2.12347 10.2466 2.15998 10.2536C2.16998 10.2555 2.17973 10.259 2.18986 10.2605C2.23661 10.2679 2.28424 10.2715 2.33224 10.2715C2.35874 10.2715 2.38537 10.2702 2.41212 10.2681C2.41762 10.2676 2.423 10.2665 2.4285 10.266C2.44975 10.2637 2.47088 10.2614 2.49213 10.2577C2.50188 10.256 2.51163 10.2534 2.52138 10.2514C2.53826 10.2479 2.55514 10.2446 2.57189 10.2401C2.58976 10.2355 2.60739 10.2294 2.62514 10.2235C2.63352 10.2209 2.64189 10.2186 2.65014 10.2156L2.65114 10.2152C2.65164 10.2151 2.65214 10.2149 2.65264 10.2147C2.65302 10.2146 2.65339 10.2144 2.65377 10.2142L13.8031 6.19289L27.0246 42.5176C24.6661 44.5805 23.6839 47.9588 24.8184 51.0755C25.938 54.1513 28.8886 56.2181 32.1608 56.2181C33.0711 56.2181 33.9699 56.059 34.8324 55.7451C36.7934 55.0313 38.3591 53.5968 39.2411 51.7054C39.7099 50.6999 39.9533 49.6297 39.9736 48.5529L63.5007 39.9973L63.5009 39.9971C63.5072 39.9949 63.5131 39.9919 63.5192 39.9895C63.5431 39.9803 63.5667 39.9709 63.5893 39.9599C63.599 39.9553 63.6078 39.9496 63.6173 39.9446C63.6358 39.935 63.6543 39.9256 63.672 39.9149C63.682 39.9086 63.6912 39.9014 63.701 39.895C63.717 39.8843 63.7333 39.8739 63.7486 39.8624C63.7535 39.8586 63.7577 39.8544 63.7625 39.8506C63.7817 39.8353 63.8008 39.8199 63.8187 39.8033C63.8217 39.8 63.8245 39.7969 63.8275 39.794C63.8464 39.7757 63.8649 39.7574 63.8822 39.7379C63.8857 39.734 63.8886 39.7296 63.8921 39.7256C63.9084 39.7066 63.9242 39.6874 63.9389 39.6672C63.9405 39.6651 63.9417 39.6627 63.9432 39.6605C63.9591 39.6381 63.9744 39.6154 63.9882 39.5917C63.9907 39.5875 63.9927 39.5829 63.9952 39.5785C64.0076 39.5567 64.0195 39.5349 64.0301 39.5122C64.0342 39.5034 64.0375 39.494 64.0412 39.485C64.0492 39.4665 64.0574 39.448 64.0642 39.429C64.0689 39.4158 64.0722 39.4023 64.0762 39.3891C64.081 39.3737 64.0864 39.3585 64.0902 39.3428C64.096 39.3197 64.1003 39.2962 64.1043 39.2727C64.1053 39.2665 64.107 39.2605 64.1079 39.2543C64.1302 39.1048 64.1166 38.9476 64.0612 38.7954ZM36.7676 7.15072L37.8358 10.0872L34.899 11.1561L33.8302 8.21969L36.7676 7.15072ZM42.3255 22.4213L43.3945 25.3575L40.4569 26.4266L39.3883 23.4902L42.3255 22.4213ZM31.1661 26.4825L37.6265 24.1314L39.0161 27.9485C39.1499 28.3173 39.5037 28.5659 39.8974 28.5659C40.0062 28.5659 40.1137 28.546 40.2175 28.5084L44.9165 26.7983C45.4028 26.622 45.6541 26.0832 45.4765 25.5969L44.087 21.7801L50.5485 19.4285L56.7496 36.4658L38.0432 43.2686C37.6919 42.8674 37.3025 42.5031 36.8799 42.1827L31.1661 26.4825ZM15.2457 4.67276C15.2402 4.65776 15.2333 4.64364 15.2272 4.62888C15.2211 4.61451 15.2156 4.59963 15.2088 4.58551C15.2027 4.57263 15.1955 4.56088 15.1888 4.5485C15.1806 4.53313 15.1727 4.51737 15.1637 4.50262C15.1575 4.4925 15.1503 4.48325 15.1437 4.47337C15.1331 4.45737 15.1228 4.44112 15.1112 4.42599C15.1052 4.41799 15.0983 4.41087 15.0921 4.40299C15.0791 4.38686 15.0662 4.37074 15.0521 4.35561C15.0465 4.34949 15.0401 4.34399 15.0342 4.33798C15.0187 4.32223 15.0033 4.30648 14.9868 4.29186C14.9821 4.28773 14.9769 4.28411 14.9722 4.2801C14.9539 4.26448 14.9354 4.2491 14.9161 4.2351C14.9133 4.2331 14.9103 4.2316 14.9076 4.22948C14.8858 4.21397 14.8636 4.19922 14.8406 4.1856C14.8388 4.1846 14.8369 4.18372 14.8352 4.18285C14.7072 4.10847 14.5622 4.06459 14.4121 4.05671C14.4108 4.05671 14.4095 4.05684 14.4081 4.05671C14.3791 4.05534 14.35 4.05521 14.3206 4.05659C14.3153 4.05684 14.3099 4.05784 14.3045 4.05821C14.2793 4.05984 14.254 4.06184 14.2288 4.06559C14.2166 4.06746 14.2046 4.07046 14.1925 4.07284C14.174 4.07621 14.1554 4.07934 14.1369 4.08396C14.1159 4.08921 14.095 4.09634 14.0741 4.10296C14.0649 4.10597 14.0555 4.10821 14.0462 4.11147L14.045 4.11197C14.0446 4.11209 14.0441 4.11222 14.0436 4.11234C14.0432 4.11247 14.0429 4.11272 14.0425 4.11284L2.89317 8.13418L2.25174 6.37203L13.3997 2.35119C13.3999 2.35107 13.4001 2.35094 13.4003 2.35094C13.4009 2.35069 13.4016 2.35057 13.4023 2.35032C14.8599 1.8199 16.4769 2.57396 17.0074 4.03146L30.3878 40.7942C30.084 40.8652 29.7833 40.9534 29.4872 41.0612C29.1888 41.1699 28.9025 41.2968 28.626 41.4368L15.2457 4.67276ZM37.5414 50.9126C36.8711 52.3501 35.6812 53.4404 34.1908 53.9828C33.5345 54.2217 32.8513 54.3429 32.1605 54.3429C29.6737 54.3429 27.4311 52.772 26.5803 50.4339C25.4605 47.3574 27.0525 43.9432 30.1291 42.8233C30.7854 42.5844 31.4685 42.4632 32.1594 42.4632C34.6461 42.4632 36.8888 44.0341 37.7396 46.3723C38.2822 47.8627 38.2118 49.4752 37.5414 50.9126ZM39.7683 46.632C39.697 46.3289 39.6098 46.0282 39.5017 45.7311C39.3937 45.4342 39.268 45.147 39.1272 44.8697L61.3369 36.7932L61.9783 38.5554L39.7683 46.632Z" fill="#3284FF"/>
</g>
</svg>
