<svg width="50" height="49" viewBox="0 0 50 49" fill="none" xmlns="http://www.w3.org/2000/svg">
<g opacity="0.9">
<path d="M48.9803 0.446289H32.263C31.1734 0.448697 30.1288 0.880916 29.3558 1.64864L23.983 7.02147H2.95397C1.59231 7.02147 0.488281 8.1255 0.488281 9.48717V27.5689C0.488281 28.9306 1.59231 30.0346 2.95397 30.0346H39.1175C40.4791 30.0346 41.5832 28.9306 41.5832 27.5689V19.3499H44.0489C46.0009 19.3479 47.6832 17.9746 48.0761 16.0623H48.9803C49.4341 16.0623 49.8022 15.6943 49.8022 15.2405V1.26819C49.8022 0.814297 49.4341 0.446289 48.9803 0.446289ZM39.9394 27.5689C39.9394 28.0228 39.5714 28.3908 39.1175 28.3908H2.95397C2.50008 28.3908 2.13208 28.0228 2.13208 27.5689V9.48717C2.13208 9.03328 2.50008 8.66527 2.95397 8.66527H32.5423V9.57425L29.282 12.8338C28.9939 13.1231 28.8249 13.5096 28.8084 13.9173C28.8084 13.945 28.8 13.9715 28.8 13.9996C28.7984 14.4366 28.9718 14.8564 29.282 15.165L29.8571 15.7401C30.6268 16.5126 31.6722 16.9469 32.7626 16.9469C33.853 16.9469 34.8984 16.5126 35.6682 15.7401L39.4578 11.9529H39.9394V27.5689ZM48.1584 14.4186H47.3365C46.8826 14.4186 46.5146 14.7866 46.5146 15.2405C46.5146 16.6021 45.4105 17.7061 44.0489 17.7061H41.5832V11.9529C43.8518 11.9501 45.6899 10.112 45.6927 7.84337H44.0489C44.0489 9.20504 42.9448 10.3091 41.5832 10.3091H39.1175C38.8996 10.3091 38.6905 10.3957 38.5364 10.5499L34.5092 14.5771C34.1584 14.9298 33.7097 15.1682 33.2213 15.2609C32.4195 15.4034 31.5988 15.1481 31.0193 14.5763L30.4438 13.9968L33.9445 10.4957C34.099 10.3416 34.1857 10.1325 34.1861 9.91457V7.84337C34.1861 7.38948 33.8181 7.02147 33.3642 7.02147H26.3074L30.5181 2.81085C30.982 2.35054 31.6092 2.09169 32.263 2.09008H48.1584V14.4186Z" fill="#3284FF"/>
<path d="M21.0356 11.9531C17.4041 11.9531 14.4604 14.8968 14.4604 18.5283C14.4604 22.1598 17.4041 25.1035 21.0356 25.1035C24.6672 25.1035 27.6108 22.1598 27.6108 18.5283C27.6068 14.8988 24.6651 11.9571 21.0356 11.9531ZM21.0356 23.4597C18.3123 23.4597 16.1042 21.2516 16.1042 18.5283C16.1042 15.805 18.3123 13.5969 21.0356 13.5969C23.759 13.5969 25.967 15.805 25.967 18.5283C25.9642 21.2508 23.7582 23.4569 21.0356 23.4597Z" fill="#3284FF"/>
<path d="M6.99846 10.9669C6.73519 12.2588 5.72508 13.2685 4.43324 13.5313C4.05078 13.6096 3.77588 13.9463 3.77588 14.3368V22.7203C3.77588 23.1108 4.05078 23.4475 4.43324 23.5258C5.72508 23.7886 6.73519 24.7983 6.99846 26.0902C7.07671 26.4726 7.41302 26.7471 7.8031 26.7475H11.173V25.1037H8.42634C7.93152 23.6979 6.82549 22.5919 5.41967 22.0971V14.96C6.82549 14.4652 7.93152 13.3592 8.42634 11.9534H11.173V10.3096H7.8031C7.41302 10.31 7.07671 10.5845 6.99846 10.9669Z" fill="#3284FF"/>
<path d="M36.6517 22.0965C35.2459 22.5913 34.1399 23.6973 33.6451 25.1031H30.8984V26.7469H34.2683C34.6584 26.7465 34.9947 26.472 35.0729 26.0896C35.3362 24.7977 36.3463 23.788 37.6382 23.5252C38.0206 23.4469 38.2955 23.1102 38.2955 22.7197V17.7061H36.6517V22.0965Z" fill="#3284FF"/>
<path d="M39.2359 34.326C38.2137 33.9503 37.0836 34.0013 36.0996 34.4672L25.4502 39.4255C26.1565 38.1529 26.1365 36.6014 25.3984 35.3473C24.66 34.0928 23.3132 33.3227 21.8576 33.3223H9.52916C7.30706 33.3207 5.28362 34.6013 4.33411 36.6099H1.31018C0.856289 36.6099 0.488281 36.9779 0.488281 37.4318V48.1164C0.488281 48.5703 0.856289 48.9383 1.31018 48.9383H23.5941C24.1945 48.9371 24.7872 48.8059 25.3318 48.5539L39.5738 41.9153C41.6213 40.9469 42.5058 38.5093 41.5559 36.4529C41.0984 35.4621 40.2628 34.6956 39.2359 34.326ZM38.8767 40.4268L24.6371 47.0638C24.3105 47.2155 23.9545 47.2941 23.5941 47.2945H2.13208V38.2537H4.88552C5.23506 38.2537 5.54648 38.0321 5.66126 37.7022C6.23755 36.0605 7.78905 34.9625 9.52916 34.9661H21.8576C23.2193 34.9661 24.3233 36.0701 24.3233 37.4318C24.3233 38.7934 23.2193 39.8974 21.8576 39.8974H14.4605V41.5412H23.8919C24.4907 41.54 25.0826 41.4092 25.626 41.1576L36.7963 35.9565C37.3862 35.68 38.0616 35.6491 38.6744 35.871C39.2868 36.0926 39.7861 36.5489 40.0618 37.1392C40.2135 37.4679 40.2921 37.8259 40.2929 38.1878C40.2925 39.145 39.7411 40.0162 38.8767 40.4268Z" fill="#3284FF"/>
</g>
</svg>
